<svg
  viewBox="0 0 364.00378 448.83743"
  xmlns="http://www.w3.org/2000/svg"
  width="364.00378"
  height="448.83743"
  aria-hidden="true"
>
  <rect
    fill="#4ade80"
    x="-9.46"
    y="-419.25"
    width="228.37"
    height="61.28"
    rx="10"
    ry="10"
    transform="rotate(135.71)"
  />
  <path
    fill="#4ade80"
    d="M33.02 349.43l-30.09-30.08c-3.9-3.91-3.9-10.24 0-14.14l79.77-79.77-79.77-79.78c-3.9-3.9-3.9-10.24 0-14.14l30.09-30.08c3.9-3.91 10.23-3.91 14.14 0l116.98 116.98c1.83 1.84 2.8 4.2 2.92 6.6.02.28.01.56 0 .83-.12 2.4-1.09 4.76-2.92 6.59l-31.07 31.07-85.91 85.92c-3.91 3.91-10.24 3.91-14.14 0z"
  />
  <rect
    fill="#4ade80"
    x="95.07"
    y="-100.92"
    width="324.63"
    height="68.52"
    rx="10"
    ry="10"
    transform="rotate(45)"
  />
</svg>
