<svg viewBox="0 0 450.41663 364.00137" xmlns="http://www.w3.org/2000/svg">
    <rect fill="#4ade80" x="295.595" y="-161.84532" width="185.39" height="61.28" rx="10" ry="10" transform="rotate(45)" />
    <path fill="#4ade80" d="M349.445 330.986l-30.08 30.09c-3.91 3.9-10.24 3.9-14.14 0l-79.77-79.77-79.78 79.77c-3.9 3.9-10.24 3.9-14.14 0l-30.08-30.09c-3.91-3.9-3.91-10.23 0-14.14l116.98-116.98c1.84-1.83 4.2-2.8 6.6-2.92.28-.02.56-.01.83 0 2.4.12 4.76 1.09 6.59 2.92l31.07 31.07 85.92 85.91c3.91 3.91 3.91 10.24 0 14.14z" />
    <rect fill="#4ade80" x="-162.315" y="156.47" width="324.63" height="68.52" rx="10" ry="10" transform="rotate(-45)" />
  </svg>